<?xml version="1.0" encoding="utf-8"?>
<!-- Generator: Adobe Illustrator 27.0.1, SVG Export Plug-In . SVG Version: 6.00 Build 0)  -->
<svg version="1.1" baseProfile="tiny" id="Layer_1" xmlns="http://www.w3.org/2000/svg" xmlns:xlink="http://www.w3.org/1999/xlink"
	 x="0px" y="0px" viewBox="0 0 612 792" overflow="visible" xml:space="preserve">
<g>
	<path d="M273.99,267.83c0.34-19.33,14.59-35.11,33.03-38.06l3.35-23.22c-36.3-0.75-46.56,21.55-49.18,36.66
		c-13.85,79.69-46.87,317.32-46.87,317.32l44.89,0.78l37.11-257.39C282.9,297.48,273.72,283.68,273.99,267.83z"/>
	<path fill="#BE1E2D" d="M277.64,129.03l-3.02,20.87l20.81,0.25l1.62-6.85l33.29,0.58l-12.39,85.87c17.98,3.87,31.31,20,30.97,39.08
		c-0.38,21.69-18.28,38.96-39.96,38.58c-0.74-0.01-1.46-0.1-2.19-0.15l-14.3,99.1c66.98,2.07,68.55-23.41,71.71-44.23
		c6.35-41.88,33.49-230.98,33.49-230.98L277.64,129.03z"/>
</g>
</svg>
