<?xml version="1.0" encoding="utf-8"?>
<!-- Generator: Adobe Illustrator 27.0.1, SVG Export Plug-In . SVG Version: 6.00 Build 0)  -->
<svg version="1.1" baseProfile="tiny" id="Layer_1" xmlns="http://www.w3.org/2000/svg" xmlns:xlink="http://www.w3.org/1999/xlink"
	 x="0px" y="0px" viewBox="0 0 792 612" overflow="visible" xml:space="preserve">
<g>
	<path d="M13.3,328.01c0.71-7.01,1.24-15.07,1.6-24.18c0.35-9.11,0.53-17.11,0.53-24c2.82,0.05,5.19,0.07,7.09,0.07
		c2.05,0,4.05-0.03,6.02-0.11c1.96-0.07,4.04-0.11,6.23-0.11c2.73,0,5.17,0.15,7.32,0.46c2.15,0.31,4.06,1.01,5.73,2.12
		s2.91,2.45,3.72,4.02c0.81,1.58,1.22,3.41,1.22,5.51c0,1.32-0.15,2.57-0.46,3.76c-0.31,1.19-0.76,2.31-1.36,3.35
		c-0.6,1.05-1.31,1.96-2.14,2.75c-0.82,0.79-1.64,1.41-2.45,1.87c-0.81,0.46-1.74,0.85-2.77,1.18c-1.04,0.33-2.42,0.73-4.16,1.2
		l2.4,4.66c0.77,1.48,2.25,4.14,4.41,7.98l3.57,6.25c0.19,0.33,0.75,1.4,1.69,3.21c-2.88-0.05-4.78-0.07-5.7-0.07
		c-1.13,0-3.13,0.02-5.98,0.07l-3.91-9.39c-0.68-1.43-1.5-3.13-2.47-5.08l-4.26-8.58c-0.42-0.8-1.01-2-1.76-3.6
		c1.58,0.28,3.02,0.42,4.31,0.42c2.03,0,3.87-0.33,5.55-0.99c1.67-0.66,2.96-1.68,3.85-3.05c0.89-1.38,1.34-2.88,1.34-4.5
		c0-0.99-0.19-1.91-0.58-2.75c-0.39-0.85-1.04-1.56-1.96-2.15c-0.92-0.59-2.01-0.96-3.28-1.13c-1.27-0.17-2.54-0.25-3.81-0.25
		c-0.71,0-1.67,0.01-2.89,0.03c-1.22,0.02-2.73,0.04-4.52,0.04l-0.63,14.51l-0.66,26.47l-5.48-0.07
		C17.77,327.94,15.99,327.96,13.3,328.01z"/>
	<path d="M90.39,320c-0.31,1.39-0.74,3.88-1.31,7.48c-2.54,0.54-4.68,0.91-6.42,1.09c-1.74,0.19-3.49,0.28-5.26,0.28
		c-3.08,0-5.84-0.31-8.28-0.92c-2.44-0.61-4.57-1.73-6.41-3.37c-1.83-1.63-3.19-3.64-4.06-6.01c-0.87-2.37-1.3-4.87-1.3-7.48
		c0-2.89,0.51-5.69,1.52-8.41c1.01-2.71,2.43-4.94,4.25-6.66c1.82-1.73,3.9-2.95,6.23-3.67c2.33-0.72,4.77-1.08,7.31-1.08
		c2.4,0,4.68,0.3,6.85,0.9c2.16,0.6,3.98,1.58,5.45,2.94s2.6,3,3.39,4.91c0.79,1.91,1.18,4.05,1.18,6.39c0,1.1-0.12,2.24-0.35,3.42
		l-25.87,0.04c-0.05,0.87-0.07,1.57-0.07,2.08c0,1.58,0.27,3.02,0.81,4.34c0.54,1.32,1.33,2.44,2.36,3.35
		c1.04,0.92,2.27,1.59,3.71,2.03c1.43,0.44,2.85,0.65,4.24,0.65c1.62,0,3.38-0.18,5.28-0.53C85.53,321.44,87.78,320.84,90.39,320z
		 M67.59,305.74l16.52,0.03c0-1.13-0.04-1.96-0.11-2.5c-0.07-0.54-0.23-1.15-0.48-1.85c-0.25-0.69-0.58-1.3-1.01-1.83
		c-0.42-0.53-0.92-0.97-1.48-1.32c-0.57-0.35-1.22-0.62-1.96-0.81c-0.74-0.19-1.54-0.28-2.38-0.28c-0.99,0-1.95,0.15-2.88,0.46
		c-0.93,0.3-1.78,0.75-2.56,1.34c-0.78,0.59-1.41,1.24-1.89,1.97c-0.48,0.73-0.84,1.42-1.08,2.09
		C68.06,303.71,67.83,304.61,67.59,305.74z"/>
	<path d="M108.26,328.01l-4.13-12.53l-5.94-17.23l-2.23-6.14c1.81,0.05,3.46,0.07,4.97,0.07c1.43,0,2.94-0.02,4.51-0.07l8.17,26.46
		l9.36-26.46c1.77,0.05,3.45,0.07,5.05,0.07c1.7,0,3.31-0.02,4.84-0.07l6.06,23.33c0.07,0.35,0.32,1.39,0.74,3.11l0.81-2.33
		c0.02-0.05,0.25-0.6,0.67-1.66l5.47-13.87l3.25-8.58c1.79,0.05,3.33,0.07,4.62,0.07c1.06,0,2.66-0.02,4.8-0.07l-9.7,22.17
		c-2.1,4.75-4.04,9.33-5.82,13.73c-1.98-0.05-3.53-0.07-4.66-0.07c-1.18,0-2.96,0.02-5.36,0.07l-6.47-25.7
		c-0.35,0.92-1.06,2.87-2.12,5.86l-7.16,19.84c-2-0.05-3.52-0.07-4.55-0.07C112.3,327.94,110.57,327.96,108.26,328.01z"/>
	<path d="M161.73,328.01c0.36-3.53,0.61-6.48,0.75-8.86c0.24-3.76,0.45-8.11,0.63-13.02c0.18-4.92,0.3-9.59,0.38-14.01
		c2.29,0.05,4.01,0.07,5.16,0.07c1.05,0,2.76-0.02,5.12-0.07c-0.32,4.09-0.57,8-0.77,11.72c-0.19,3.72-0.33,7.98-0.43,12.78
		c-0.09,4.8-0.13,8.6-0.13,11.4c-2.14-0.05-3.86-0.07-5.16-0.07C166.05,327.94,164.2,327.96,161.73,328.01z M163.66,285.97
		c0.09-2.42,0.14-4.28,0.14-5.58v-1.13c2.14,0.05,3.88,0.07,5.22,0.07c1.83,0,3.54-0.02,5.12-0.07c-0.07,0.59-0.12,1.26-0.14,2.01
		l-0.18,4.69c-1.79-0.05-3.44-0.07-4.94-0.07C167.38,285.9,165.64,285.92,163.66,285.97z"/>
	<path d="M180.75,328.01c0.54-5.34,0.99-11.34,1.35-18c0.36-6.66,0.57-12.62,0.62-17.9c2.17,0.05,3.9,0.07,5.19,0.07
		c1.53,0,3.16-0.02,4.88-0.07l-0.39,6c0.73-1.03,1.37-1.86,1.92-2.47c0.55-0.61,1.26-1.21,2.12-1.8c0.86-0.59,1.78-1.06,2.75-1.41
		c0.98-0.35,2.07-0.64,3.28-0.85c1.21-0.21,2.48-0.32,3.8-0.32c2.1,0,4.1,0.26,6.02,0.79c1.92,0.53,3.47,1.37,4.64,2.52
		c1.18,1.15,1.95,2.41,2.33,3.78c0.38,1.36,0.57,2.81,0.57,4.34c0,0.64-0.04,1.65-0.11,3.04l-0.73,15.42
		c-0.09,2.14-0.15,4.42-0.17,6.85c-1.86-0.05-3.45-0.07-4.77-0.07c-1.79,0-3.59,0.02-5.41,0.07c0.19-2.05,0.42-5.62,0.71-10.71
		c0.28-5.09,0.42-8.46,0.42-10.11c0-1.86-0.29-3.35-0.88-4.48c-0.59-1.13-1.5-1.99-2.73-2.58c-1.23-0.59-2.57-0.88-4-0.88
		c-1.41,0-2.73,0.27-3.95,0.81c-1.22,0.54-2.28,1.33-3.18,2.37c-0.94,1.06-1.67,2.36-2.19,3.92c-0.54,1.65-0.94,4.37-1.2,8.15
		c-0.24,3.37-0.43,7.87-0.57,13.52c-1.82-0.05-3.45-0.07-4.92-0.07C184.68,327.94,182.87,327.96,180.75,328.01z"/>
	<path d="M263.78,328.01c-1.95-0.05-3.47-0.07-4.56-0.07c-1.18,0-2.8,0.02-4.87,0.07l0.31-6.14c-1.04,1.34-1.92,2.38-2.67,3.11
		c-0.74,0.73-1.66,1.41-2.75,2.03c-1.09,0.62-2.27,1.09-3.55,1.39c-1.27,0.31-2.59,0.46-3.95,0.46c-2.26,0-4.38-0.41-6.35-1.24
		c-1.98-0.82-3.66-1.98-5.05-3.48c-1.39-1.49-2.41-3.27-3.07-5.33c-0.66-2.06-0.99-4.21-0.99-6.44c0-3.08,0.59-6.09,1.76-9.02
		c1.17-2.93,2.79-5.3,4.83-7.11c2.04-1.81,4.36-3.09,6.95-3.85c2.59-0.75,5.36-1.13,8.32-1.13c2.14,0,4.56,0.2,7.26,0.6
		c0.17-3.06,0.26-6.27,0.26-9.64v-2.4c2.21,0.05,3.91,0.07,5.09,0.07c1.53,0,3.25-0.02,5.16-0.07c-0.52,5.98-1,14.11-1.46,24.41
		C264.01,314.53,263.78,322.45,263.78,328.01z M255.05,298.57c-1.76-0.47-3.46-0.71-5.08-0.71c-1.86,0-3.64,0.26-5.33,0.78
		c-1.69,0.52-3.19,1.4-4.5,2.65c-1.3,1.25-2.31,2.85-3.02,4.8c-0.71,1.95-1.06,3.84-1.06,5.65c0,1.81,0.32,3.47,0.97,4.98
		c0.65,1.51,1.65,2.69,3.02,3.56c1.37,0.87,2.91,1.31,4.62,1.31c1.3,0,2.47-0.23,3.53-0.69c1.06-0.46,2.02-1.17,2.89-2.12
		c0.87-0.95,1.6-2.18,2.21-3.69c0.6-1.51,1.03-3.51,1.29-6C254.76,307.25,254.91,303.75,255.05,298.57z"/>
</g>
<polygon fill="#BE1E2D" points="622.75,100.62 623.52,99.66 569.45,100.62 163.95,100.62 102.93,170.25 478.87,170.25 
	459.13,190.58 87.17,190.58 27.87,260.21 294.74,260.21 328.27,300.76 410.19,300.13 378.83,260.21 391.52,260.21 470.4,260.21 
	496.2,260.21 617.43,107.33 623.52,100.62 "/>
<g>
	<path d="M309.29,328.84l-1.94,0l-2.72-7.11l-10.9,0.02c-0.39,1.12-0.81,2.3-1.27,3.55c-0.46,1.25-0.89,2.44-1.31,3.57l-1.72,0
		c0.73-1.91,1.44-3.79,2.14-5.62c0.71-1.84,1.41-3.66,2.1-5.47c0.7-1.81,1.4-3.64,2.1-5.47c0.71-1.83,1.42-3.7,2.14-5.61l2.29,0
		L309.29,328.84z M304.16,320.46l-5.16-12.31l-4.85,12.32L304.16,320.46z"/>
	<path d="M347,312.56c-0.15-0.66-0.43-1.28-0.83-1.85s-0.91-1.07-1.52-1.49c-0.61-0.42-1.3-0.76-2.1-1
		c-0.79-0.24-1.63-0.36-2.54-0.36c-1.28,0-2.44,0.21-3.49,0.63c-1.04,0.42-1.93,1.04-2.67,1.85c-0.73,0.82-1.3,1.84-1.69,3.06
		c-0.4,1.22-0.59,2.64-0.59,4.26c0,1.62,0.2,3.04,0.6,4.28c0.4,1.23,0.97,2.27,1.7,3.1c0.74,0.83,1.62,1.47,2.65,1.9
		c1.03,0.43,2.18,0.64,3.45,0.64c1.91,0,3.49-0.43,4.73-1.29c1.24-0.86,2.01-2.11,2.3-3.76l1.68,0c-0.16,1.05-0.49,1.99-0.99,2.82
		c-0.5,0.83-1.12,1.53-1.88,2.1c-0.76,0.57-1.62,1-2.61,1.3c-0.98,0.3-2.05,0.45-3.2,0.45c-1.56,0-2.97-0.27-4.22-0.81
		c-1.25-0.54-2.31-1.31-3.19-2.31c-0.88-0.99-1.55-2.2-2.03-3.63c-0.47-1.42-0.71-3.01-0.72-4.78c0-1.75,0.23-3.33,0.7-4.73
		c0.47-1.4,1.15-2.6,2.03-3.59c0.88-0.99,1.94-1.75,3.19-2.29c1.25-0.53,2.64-0.8,4.19-0.81c1.06,0,2.08,0.15,3.04,0.46
		c0.97,0.31,1.83,0.74,2.6,1.3c0.77,0.56,1.42,1.22,1.94,2c0.53,0.77,0.89,1.63,1.1,2.56L347,312.56z"/>
	<path d="M359.31,312.68c1.07,0,2.03,0.18,2.89,0.55c0.86,0.37,1.6,0.91,2.21,1.61c0.61,0.71,1.07,1.57,1.4,2.59
		c0.33,1.02,0.49,2.17,0.49,3.45c0,1.31-0.16,2.47-0.49,3.5c-0.33,1.02-0.79,1.89-1.4,2.6c-0.61,0.71-1.34,1.25-2.2,1.62
		c-0.86,0.38-1.82,0.56-2.87,0.56c-1.05,0-2.01-0.18-2.86-0.54c-0.86-0.36-1.59-0.9-2.2-1.6c-0.61-0.71-1.08-1.57-1.42-2.6
		c-0.34-1.02-0.51-2.2-0.51-3.52c0-1.29,0.16-2.45,0.49-3.47c0.33-1.02,0.8-1.88,1.4-2.58c0.61-0.7,1.34-1.24,2.2-1.61
		C357.31,312.87,358.26,312.68,359.31,312.68z M359.34,327.54c0.8,0,1.52-0.14,2.17-0.42c0.65-0.28,1.22-0.7,1.69-1.26
		c0.47-0.56,0.84-1.26,1.1-2.09s0.39-1.8,0.39-2.9c0-1.09-0.13-2.05-0.4-2.88c-0.26-0.83-0.63-1.52-1.11-2.06
		c-0.47-0.55-1.04-0.96-1.69-1.23c-0.65-0.28-1.38-0.41-2.17-0.41c-0.81,0-1.54,0.14-2.19,0.42c-0.65,0.28-1.22,0.69-1.69,1.24
		c-0.47,0.55-0.83,1.23-1.09,2.06c-0.25,0.83-0.38,1.79-0.38,2.88c0,1.1,0.13,2.07,0.39,2.9c0.26,0.83,0.62,1.52,1.09,2.08
		c0.47,0.56,1.04,0.97,1.69,1.25C357.8,327.4,358.53,327.54,359.34,327.54z"/>
	<path d="M380.85,326.55c-0.48,0.57-0.96,1.02-1.42,1.36c-0.46,0.34-0.92,0.6-1.35,0.78c-0.44,0.19-0.86,0.3-1.27,0.36
		s-0.81,0.08-1.18,0.08c-0.98,0-1.85-0.19-2.61-0.58s-1.39-0.94-1.9-1.64c-0.51-0.71-0.9-1.56-1.17-2.56c-0.26-1-0.4-2.11-0.4-3.34
		c0-1.29,0.15-2.46,0.47-3.49c0.31-1.03,0.75-1.91,1.31-2.63c0.56-0.72,1.22-1.27,1.98-1.66c0.76-0.39,1.58-0.58,2.46-0.58
		c0.38,0,0.76,0.02,1.15,0.06c0.39,0.04,0.8,0.12,1.21,0.25c0.42,0.13,0.85,0.32,1.31,0.57c0.45,0.26,0.92,0.6,1.41,1.03l-0.01-7.99
		l1.62,0l0.04,22.14l-1.62,0L380.85,326.55z M380.84,316.52c-0.73-0.75-1.49-1.32-2.28-1.7c-0.79-0.38-1.66-0.56-2.62-0.56
		c-0.73,0-1.39,0.14-1.97,0.42c-0.58,0.28-1.09,0.7-1.5,1.26c-0.42,0.56-0.74,1.26-0.97,2.1c-0.23,0.84-0.34,1.83-0.34,2.96
		c0,2.13,0.42,3.75,1.24,4.85c0.82,1.1,1.97,1.66,3.44,1.65c0.97,0,1.86-0.27,2.67-0.81c0.81-0.53,1.59-1.33,2.34-2.38
		L380.84,316.52z"/>
	<path d="M389.51,328.7l-1.62,0l-0.03-15.67l1.62,0L389.51,328.7z M389.5,309.09l-1.62,0l0-2.53l1.62,0L389.5,309.09z"/>
	<path d="M396.28,315.34c0.52-0.62,1.04-1.11,1.54-1.48c0.51-0.37,1-0.64,1.48-0.83c0.48-0.19,0.93-0.31,1.36-0.36
		c0.43-0.05,0.84-0.07,1.21-0.07c3.22-0.01,4.84,1.89,4.84,5.69l0.02,10.37l-1.62,0l-0.02-10.23c0-0.73-0.07-1.36-0.2-1.89
		c-0.13-0.53-0.34-0.97-0.63-1.31c-0.29-0.34-0.67-0.6-1.13-0.77c-0.46-0.17-1.03-0.25-1.71-0.25c-0.89,0-1.76,0.26-2.62,0.79
		c-0.85,0.53-1.7,1.27-2.53,2.23l0.02,11.45l-1.62,0l-0.03-15.67l1.62,0L396.28,315.34z"/>
	<path d="M423.89,327.71c0,1.25-0.13,2.32-0.4,3.21c-0.27,0.88-0.67,1.6-1.2,2.16c-0.53,0.55-1.2,0.96-2.01,1.22
		c-0.81,0.26-1.74,0.39-2.81,0.39c-0.89,0-1.69-0.09-2.41-0.29c-0.72-0.19-1.33-0.47-1.84-0.84c-0.51-0.36-0.92-0.81-1.21-1.35
		c-0.29-0.54-0.46-1.15-0.5-1.84l1.62,0c0.07,0.93,0.45,1.61,1.16,2.05c0.7,0.44,1.74,0.65,3.12,0.65c0.81,0,1.52-0.1,2.12-0.3
		c0.61-0.2,1.11-0.52,1.51-0.96c0.4-0.45,0.71-1.03,0.92-1.76c0.21-0.73,0.31-1.62,0.31-2.69l0-0.99c-0.52,0.62-1.02,1.11-1.48,1.47
		c-0.46,0.36-0.91,0.63-1.34,0.81c-0.43,0.19-0.85,0.3-1.24,0.35c-0.4,0.05-0.78,0.07-1.16,0.07c-0.98,0-1.85-0.19-2.61-0.58
		c-0.76-0.39-1.39-0.94-1.9-1.64c-0.51-0.71-0.9-1.56-1.17-2.56c-0.26-1-0.4-2.11-0.4-3.34c0-1.29,0.15-2.46,0.47-3.49
		c0.31-1.03,0.75-1.91,1.31-2.63c0.56-0.72,1.22-1.27,1.98-1.66c0.76-0.39,1.58-0.58,2.46-0.58c0.38,0,0.77,0.02,1.17,0.08
		c0.41,0.05,0.82,0.15,1.26,0.29s0.87,0.33,1.32,0.57c0.44,0.24,0.89,0.55,1.34,0.93l0-1.48l1.62,0L423.89,327.71z M422.25,316.45
		c-0.73-0.75-1.49-1.32-2.28-1.7c-0.79-0.38-1.66-0.56-2.62-0.56c-0.73,0-1.39,0.14-1.97,0.42c-0.58,0.28-1.09,0.7-1.5,1.26
		c-0.42,0.56-0.74,1.26-0.97,2.1c-0.23,0.84-0.34,1.83-0.34,2.96c0,2.13,0.42,3.75,1.24,4.85c0.82,1.11,1.97,1.66,3.44,1.65
		c0.97,0,1.86-0.27,2.67-0.81c0.81-0.53,1.59-1.33,2.34-2.38L422.25,316.45z"/>
	<path d="M447.59,306.46l8.05-0.01c1.08,0,2.12,0.08,3.11,0.26c1,0.17,1.88,0.49,2.64,0.96s1.37,1.09,1.82,1.89
		c0.45,0.79,0.68,1.81,0.68,3.03c0,2.17-0.68,3.82-2.04,4.96c-1.37,1.13-3.36,1.7-5.99,1.71l-6.63,0.01l0.02,9.34l-1.62,0
		L447.59,306.46z M449.23,317.64l6.69-0.01c1.13,0,2.1-0.11,2.89-0.33c0.79-0.22,1.45-0.53,1.95-0.95c0.5-0.42,0.87-0.93,1.1-1.55
		c0.23-0.61,0.34-1.32,0.34-2.13c0-0.98-0.17-1.78-0.52-2.38c-0.34-0.61-0.81-1.07-1.4-1.4c-0.59-0.33-1.27-0.55-2.03-0.65
		c-0.77-0.11-1.58-0.16-2.43-0.16l-6.61,0.01L449.23,317.64z"/>
	<path d="M475.49,314.14c-0.15-0.03-0.31-0.04-0.49-0.04c-0.16,0-0.36,0-0.59,0c-0.46,0-0.9,0.1-1.33,0.29
		c-0.43,0.19-0.84,0.44-1.23,0.74c-0.39,0.31-0.75,0.65-1.09,1.03c-0.34,0.39-0.63,0.78-0.87,1.18l0.02,11.22l-1.62,0l-0.03-15.67
		l1.62,0l0,2.16c0.46-0.54,0.91-0.98,1.36-1.32c0.45-0.34,0.89-0.6,1.31-0.79c0.43-0.19,0.83-0.31,1.22-0.38
		c0.39-0.06,0.75-0.09,1.07-0.09c0.11,0,0.21,0,0.3,0.01c0.09,0.01,0.2,0.02,0.32,0.03L475.49,314.14z"/>
	<path d="M484.57,312.46c1.07,0,2.03,0.18,2.89,0.55c0.86,0.37,1.6,0.91,2.21,1.61c0.61,0.71,1.07,1.57,1.4,2.59
		c0.33,1.02,0.49,2.17,0.49,3.45c0,1.31-0.16,2.47-0.49,3.5c-0.33,1.03-0.79,1.89-1.4,2.6c-0.61,0.71-1.34,1.25-2.2,1.62
		c-0.86,0.37-1.82,0.56-2.87,0.56c-1.05,0-2.01-0.18-2.86-0.54c-0.86-0.36-1.59-0.9-2.2-1.6c-0.61-0.71-1.08-1.57-1.42-2.6
		c-0.34-1.02-0.51-2.2-0.51-3.52c0-1.29,0.16-2.45,0.49-3.47c0.33-1.02,0.8-1.88,1.4-2.58c0.61-0.7,1.34-1.24,2.2-1.61
		C482.56,312.65,483.52,312.46,484.57,312.46z M484.59,327.33c0.8,0,1.52-0.14,2.17-0.42c0.65-0.28,1.22-0.7,1.69-1.26
		c0.47-0.56,0.84-1.26,1.1-2.09c0.26-0.83,0.39-1.8,0.39-2.9c0-1.09-0.13-2.05-0.4-2.88c-0.26-0.83-0.63-1.52-1.11-2.06
		c-0.47-0.55-1.04-0.96-1.69-1.23c-0.65-0.28-1.38-0.41-2.17-0.41c-0.81,0-1.54,0.14-2.19,0.42c-0.65,0.28-1.22,0.69-1.69,1.24
		c-0.47,0.55-0.83,1.23-1.09,2.06c-0.25,0.83-0.38,1.79-0.38,2.88c0,1.1,0.13,2.07,0.39,2.9c0.26,0.83,0.62,1.52,1.09,2.08
		c0.47,0.56,1.04,0.97,1.69,1.25C483.05,327.19,483.79,327.33,484.59,327.33z"/>
	<path d="M497.6,329.18c0,1.12-0.08,2.03-0.26,2.72c-0.17,0.69-0.42,1.24-0.73,1.63c-0.31,0.39-0.69,0.66-1.13,0.8
		c-0.44,0.14-0.94,0.21-1.48,0.21c-0.46,0-0.88-0.02-1.25-0.06l0-1.72c0.08,0.01,0.16,0.02,0.24,0.02c0.07,0,0.13,0,0.2,0
		c0.57,0,1.03-0.04,1.4-0.12c0.36-0.08,0.65-0.25,0.85-0.51c0.2-0.26,0.34-0.63,0.42-1.12c0.08-0.49,0.12-1.14,0.12-1.95
		l-0.03-16.28l1.62,0L497.6,329.18z M497.56,308.9l-1.62,0l0-2.53l1.62,0L497.56,308.9z"/>
	<path d="M509.13,328.9c-1.09,0-2.08-0.18-2.97-0.55c-0.89-0.37-1.66-0.91-2.3-1.61c-0.64-0.71-1.14-1.57-1.49-2.6
		c-0.35-1.02-0.53-2.19-0.53-3.5c0-1.27,0.16-2.41,0.5-3.43c0.34-1.02,0.81-1.88,1.43-2.59c0.62-0.71,1.35-1.25,2.2-1.63
		c0.85-0.38,1.79-0.57,2.83-0.57c1.07,0,2.03,0.19,2.89,0.56c0.86,0.38,1.6,0.92,2.21,1.62c0.61,0.71,1.07,1.57,1.4,2.58
		c0.33,1.02,0.49,2.17,0.49,3.45V321l-12.34,0.02c0.08,1.06,0.28,1.99,0.59,2.77c0.31,0.78,0.72,1.43,1.22,1.95
		c0.5,0.52,1.08,0.9,1.73,1.16c0.66,0.25,1.37,0.38,2.13,0.38c0.54,0,1.08-0.07,1.62-0.2c0.54-0.13,1.03-0.32,1.47-0.58
		c0.44-0.26,0.8-0.58,1.1-0.95c0.3-0.38,0.47-0.81,0.52-1.29l1.6,0c-0.15,0.74-0.41,1.4-0.79,1.97c-0.38,0.57-0.84,1.06-1.39,1.46
		c-0.55,0.4-1.18,0.7-1.88,0.9C510.67,328.8,509.92,328.9,509.13,328.9z M514.15,319.39c-0.27-1.79-0.89-3.13-1.84-4.02
		c-0.95-0.89-2.12-1.33-3.51-1.33c-0.69,0-1.33,0.11-1.92,0.33c-0.59,0.22-1.12,0.55-1.58,0.99c-0.47,0.45-0.86,1.01-1.17,1.68
		c-0.32,0.67-0.54,1.47-0.67,2.37L514.15,319.39z"/>
	<path d="M526.09,328.87c-1.04,0-1.99-0.18-2.84-0.54c-0.86-0.36-1.59-0.89-2.21-1.59c-0.62-0.7-1.09-1.56-1.43-2.59
		c-0.34-1.02-0.51-2.2-0.51-3.52c0-1.29,0.16-2.45,0.49-3.48c0.33-1.03,0.8-1.89,1.41-2.59c0.61-0.7,1.35-1.24,2.2-1.61
		c0.86-0.37,1.81-0.56,2.86-0.56c0.75,0,1.46,0.1,2.11,0.3c0.66,0.2,1.24,0.5,1.74,0.89c0.51,0.39,0.93,0.87,1.28,1.45
		c0.34,0.58,0.58,1.24,0.72,1.98l-1.58,0c-0.07-0.49-0.22-0.92-0.46-1.29c-0.24-0.38-0.54-0.69-0.92-0.95
		c-0.38-0.26-0.82-0.45-1.31-0.57c-0.49-0.13-1.02-0.19-1.59-0.19c-0.79,0-1.52,0.14-2.18,0.42s-1.23,0.69-1.7,1.25
		c-0.47,0.55-0.83,1.24-1.09,2.07c-0.25,0.83-0.38,1.79-0.38,2.88c0,1.1,0.13,2.07,0.39,2.9c0.26,0.83,0.62,1.52,1.1,2.07
		c0.47,0.55,1.04,0.97,1.7,1.24c0.66,0.28,1.39,0.41,2.18,0.41c0.53,0,1.03-0.07,1.52-0.2c0.49-0.13,0.92-0.32,1.3-0.57
		c0.38-0.25,0.7-0.56,0.96-0.93c0.26-0.37,0.42-0.81,0.48-1.3l1.58,0c-0.15,0.75-0.39,1.42-0.73,1.99
		c-0.34,0.57-0.77,1.06-1.27,1.45c-0.51,0.39-1.08,0.69-1.74,0.88C527.53,328.77,526.83,328.87,526.09,328.87z"/>
	<path d="M540.57,328.58c-0.23,0.03-0.46,0.05-0.69,0.06c-0.23,0.01-0.46,0.02-0.69,0.02c-0.7,0-1.26-0.1-1.69-0.29
		c-0.43-0.19-0.75-0.49-0.97-0.88c-0.22-0.39-0.37-0.88-0.44-1.47c-0.07-0.59-0.1-1.27-0.1-2.05l-0.02-9.59l-2,0l0-1.62l2,0
		l-0.01-4.1l1.62,0l0.01,4.1l2.57,0l0,1.62l-2.57,0l0.02,9.73c0,0.65,0.05,1.16,0.14,1.55c0.09,0.38,0.24,0.68,0.43,0.89
		c0.19,0.21,0.42,0.34,0.7,0.4c0.28,0.06,0.59,0.09,0.94,0.09c0.15,0,0.28,0,0.38,0c0.11,0,0.23-0.01,0.36-0.02L540.57,328.58z"/>
</g>
</svg>
